<svg xmlns="http://www.w3.org/2000/svg" viewBox="0 0 612 239" style="max-width: 40rem;">
    <path
        d="M52.28,148.26,46.81,134H19.11l-5.35,14.27H5.08L30,87.63h6l25,60.63Zm-30.8-20.45h23L33,97.49Z"
        fill="#003a70"></path>
    <path d="M82.58,141h35.54v7.25H74.73V87.73h7.85Z" fill="#003a70"></path>
    <path
        d="M131.89,87.73h23.54c13.8,0,18.67,5.47,18.67,15.46,0,4.64-2.5,9.69-6.06,11.6,5.58,2.25,8.91,9.1,8.91,15.52,0,10.22-4.75,17.95-19.49,17.95H131.89Zm25.21,24.08c7.73,0,9-3.75,9-8.62s-1.42-8.2-9.74-8.2H139.74v16.82Zm-.24,7.26H139.74V141h17.12c9.87,0,11.65-4.88,11.65-10.7S166.73,119.07,156.86,119.07Z"
        fill="#003a70"></path>
    <path d="M232.19,120.85H200.8V141h35.55v7.25H193V87.73h43.39V95H200.8V113.6h31.39Z"
        fill="#003a70"></path>
    <path
        d="M261.74,123.64v24.62h-7.85V87.73h25.45c14.74,0,19.61,7.73,19.61,18,0,8-3,14.38-11.17,16.88l14.15,25.69h-9.28l-12.72-24.62Zm28.77-18c0-5.71-2.14-10.7-12-10.7H261.74v21.4H278.5C288.37,116.39,290.51,111.39,290.51,105.69Z"
        fill="#003a70"></path>
    <path d="M338.14,95v53.27h-8.45V95H309.84V87.73H358V95Z" fill="#003a70"></path>
    <path
        d="M405.29,148.26,399.82,134h-27.7l-5.35,14.27h-8.68l25-60.63H389l25,60.63ZM374.5,127.81h22.95L386,97.49Z"
        fill="#003a70"></path>
    <path
        d="M494.47,27.76a15.66,15.66,0,0,0,1.65,12L555.24,140.4a15.87,15.87,0,0,0,13.66,7.8H569a15.83,15.83,0,0,0,7.89-2.18l.53-.31A15.82,15.82,0,0,0,583,124.08L523.91,23.41a15.71,15.71,0,0,0-9.65-7.28,15.92,15.92,0,0,0-4-.52,15.7,15.7,0,0,0-7.94,2.17l-.55.32A15.69,15.69,0,0,0,494.47,27.76Zm7.78,2A7.67,7.67,0,0,1,505.81,25l.55-.32a7.53,7.53,0,0,1,3.85-1.06A7.78,7.78,0,0,1,517,27.48L576.1,128.15a7.79,7.79,0,0,1-2.76,10.63l-.54.32a7.8,7.8,0,0,1-10.63-2.76L503.05,35.66A7.74,7.74,0,0,1,502.25,29.78Z"
        fill="#00abd9"></path>
    <path
        d="M496.16,23.57,437.11,123.91a16.15,16.15,0,0,0,13.79,24.35,16.22,16.22,0,0,0,14.06-8L524,40a16.16,16.16,0,0,0-27.85-16.39Zm13.93.1h.06a8.11,8.11,0,0,1,6.91,12.2L458,136.21a8,8,0,0,1-5,3.73,7.87,7.87,0,0,1-2,.26,8,8,0,0,1-3.95-1h0l-.12-.08A8.12,8.12,0,0,1,444.06,128l59-100.34A8.13,8.13,0,0,1,510.09,23.67Z"
        fill="#00b189"></path>
    <path
        d="M510,99.92a131.78,131.78,0,0,0-66.06,17.54,16.3,16.3,0,1,0,16.14,28.26A100.49,100.49,0,0,1,510,132.43h.14A100.62,100.62,0,0,1,560,145.7a16.29,16.29,0,1,0,16.18-28.22A131.75,131.75,0,0,0,510.1,99.92H510Zm.3,8.09a123.67,123.67,0,0,1,61.81,16.45l.45.25a8.21,8.21,0,1,1-8.12,14.23l-.36-.23a108.76,108.76,0,0,0-53.87-14.37H510a108.75,108.75,0,0,0-54,14.37l-.37.23a8.21,8.21,0,1,1-8.12-14.24l.46-.24A123.63,123.63,0,0,1,509.78,108Z"
        fill="#003a70"></path>
    <path d="M74.73,229V168.42H86.38V229Z" fill="#003a70"></path>
    <path d="M149.72,229l-31-38.11.12,38.11H107V168.42h8.2l31,38.11-.12-38.11h11.77V229Z"
        fill="#003a70"></path>
    <path d="M220.79,229l-31-38.11.12,38.11H178.11V168.42h8.2l31,38.11-.12-38.11H229V229Z"
        fill="#003a70"></path>
    <path
        d="M272.1,230c-20.57,0-27.7-13.08-27.7-31.27s7.13-31.27,27.7-31.27,27.7,13.08,27.7,31.27S292.78,230,272.1,230Zm0-51.24c-13.08,0-15.81,8.68-15.81,20s2.73,20,15.81,20,15.81-8.68,15.81-20S285.06,178.71,272.1,178.71Z"
        fill="#003a70"></path>
    <path d="M365.69,168,340.6,229h-8.32L307.2,168h13.07l16.17,43,16.17-43Z" fill="#003a70"></path>
    <path
        d="M408.65,229l-5.17-12.93h-23L375.44,229h-13l25.39-61.18h8.42L421.65,229Zm-24.18-23.16h15L392.05,186Z"
        fill="#003a70"></path>
    <path d="M523.21,203H494.09v14.75h33.05V229H482.32V167.88h44.82v11.17H494.09v12.79h29.12Z"
        fill="#003a70"></path>
    <path
        d="M565.23,192.38c17.12,1.55,23.06,6.3,23.06,17.83,0,10.59-6.65,19.74-26.15,19.74-5.95,0-16.76-1.55-20.33-3.09V215.68c3.92,1.43,12.72,3,20.45,3,10.58,0,14.26-3.1,14.26-8.33,0-4.51-3-6.3-12.36-7.13-17.48-1.55-23.42-5.59-23.42-16.41,0-11.29,6.78-19.38,25-19.38,5.82,0,13.67.48,19.85,3.1v10.93a65,65,0,0,0-20-2.73c-9.87,0-13.32,2.5-13.32,7.49C552.27,190.48,556,191.55,565.23,192.38Z"
        fill="#003a70"></path>
    <path d="M451.78,179v49.89H439.53V179H421.11V167.82h49.1V179Z" fill="#003a70"></path>
</svg>