<?xml version="1.0" encoding="UTF-8"?><svg id="Layer_2" xmlns="http://www.w3.org/2000/svg" viewBox="0 0 787.14 100.09"><defs><style>.cls-1{fill:#72c0f1;}.cls-2{fill:#292933;}</style></defs><g id="Layer_1-2"><path class="cls-2" d="m148.69,4.02v20.27h-23.69v71.86h-21.06V24.29h-23.69V4.02h68.44Z"/><path class="cls-2" d="m211.13,35.74c4.74,4.87,7.11,11.45,7.11,20.01v40.4h-19.74v-37.51c0-7.76-4.73-11.97-11.45-11.97-7.5,0-12.24,4.6-12.24,13.55v35.93h-19.74V4.02h5.65c7.78,0,14.09,6.31,14.09,14.09v18.42c3.95-5.39,10.26-8.02,18.82-8.02,6.98,0,12.9,2.36,17.51,7.23Z"/><path class="cls-2" d="m264.18,34.6v16.79c-4.22-.69-8.05-.15-11.73,1.61-.69.23-1.3.54-1.92.92-1,.61-1.84,1.23-2.61,2.15-.61.61-1.15,1.3-1.53,2.07-1.38,2.22-2.07,4.98-2.07,8.28v29.74h-19.7V30.31h14.28c3.03,0,5.49,2.46,5.49,5.49v6.23c0-9.19,15.87-7.9,19.78-7.44Z"/><path class="cls-2" d="m289.11,71.14c2.23,6.18,7.5,9.22,15.79,9.22,2.98,0,11.15-.18,14.18-3.46l14.25,7.54c-6.45,9.07-16.06,13.55-28.69,13.55-11.05,0-19.88-3.28-26.59-9.87-6.58-6.58-9.87-14.88-9.87-24.88s3.29-18.15,9.74-24.73c6.58-6.71,15-10,25.27-10,9.61,0,17.51,3.29,23.83,10,6.44,6.58,9.6,14.87,9.6,24.73,0,2.77-.26,5.4-.79,7.9h-46.72Zm27.9-14.74c-1.98-6.97-6.58-10.39-13.95-10.39s-12.37,3.42-14.35,10.39h28.3Z"/><path class="cls-2" d="m373.82,55.35c9.08,1.97,21.06,6.71,20.93,21.05,0,7.1-2.63,12.5-7.89,16.19-5.26,3.56-11.71,5.4-19.48,5.4-13.82,0-23.3-5.26-28.3-15.66l17.11-9.73c1.71,5.13,5.53,7.76,11.19,7.76,4.73,0,7.1-1.32,7.1-4.08s-5.13-4.22-11.45-5.8c-9.08-2.5-20.93-6.97-20.93-20.39,0-6.84,2.5-12.11,7.37-15.93,5-3.81,11.19-5.65,18.43-5.65,10.92,0,20.27,5,25.67,14.08l-16.85,9.08c-2.11-3.82-5-5.8-8.82-5.8s-5.52,1.18-5.52,3.68c0,2.64,5.13,4.08,11.45,5.8Z"/><path class="cls-2" d="m457.19,35.39c4.74,4.87,7.11,11.45,7.11,20.01v40.4h-19.74v-37.51c0-7.76-4.73-11.97-11.45-11.97-7.5,0-12.24,4.6-12.24,13.55v35.93h-19.74V3.67h5.65c7.78,0,14.09,6.31,14.09,14.09v18.42c3.95-5.39,10.26-8.02,18.82-8.02,6.98,0,12.9,2.36,17.51,7.23Z"/><path class="cls-2" d="m505.77,98.59c-9.74,0-18.03-3.28-24.74-10-6.71-6.71-10.13-15-10.13-24.75s3.42-17.89,10.13-24.6c6.71-6.71,15-10.13,24.74-10.13s18.03,3.42,24.74,10.13c6.71,6.71,10.13,14.87,10.13,24.6s-3.42,18.04-10.13,24.75c-6.71,6.72-15,10-24.74,10Zm0-19.21c4.34,0,7.89-1.46,10.79-4.34,2.89-2.9,4.34-6.58,4.34-11.2s-1.45-8.29-4.34-11.19c-2.9-2.89-6.45-4.34-10.79-4.34s-7.89,1.46-10.79,4.34c-2.89,2.9-4.34,6.58-4.34,11.19s1.45,8.3,4.34,11.2c2.9,2.89,6.45,4.34,10.79,4.34Z"/><path class="cls-2" d="m547.06,96.07V0h7.08c6.99,0,12.66,5.67,12.66,12.66v83.42h-19.74Z"/><path class="cls-2" d="m624.24,4.05h5.66c7.78,0,14.09,6.31,14.09,14.09v78.04h-19.74v-6.18c-4.6,5.4-11.19,8.02-19.61,8.02s-16.06-3.28-22.24-10c-6.19-6.71-9.21-15-9.21-24.75s3.02-17.89,9.21-24.6c6.18-6.71,13.56-10.13,22.24-10.13s15,2.63,19.61,8.02V4.05Zm-15.66,75.28c4.6,0,8.42-1.44,11.32-4.34,2.9-2.9,4.34-6.84,4.34-11.72s-1.44-8.81-4.34-11.71c-2.89-2.9-6.71-4.34-11.32-4.34s-8.42,1.44-11.32,4.34c-2.89,2.9-4.34,6.84-4.34,11.71s1.45,8.82,4.34,11.72c2.9,2.9,6.71,4.34,11.32,4.34Z"/><path class="cls-2" d="m661.43,50.21h10.73v30.84c0,4.36,2.48,6.57,7.38,6.57s7.38-2.21,7.38-6.57v-30.84h10.73v31.78c0,4.9-1.68,8.85-5.1,11.73-3.42,2.88-7.71,4.36-13.01,4.36s-9.59-1.47-13.01-4.36c-3.42-2.88-5.1-6.84-5.1-11.73v-31.78Z"/><path class="cls-2" d="m733.84,97.15l-2.35-7.38h-17.43l-2.35,7.38h-11.73l15.96-46.93h8.92c2.84,0,5.37,1.81,6.29,4.5l14.43,42.43h-11.73Zm-16.56-17.43h11l-5.5-17.23-5.5,17.23Z"/><path class="cls-2" d="m758.18,97.15l-15.29-46.93h11.73l10.39,34.53,10.39-34.53h11.73l-15.29,46.93h-13.68Z"/><path class="cls-1" d="m0,66.11h14.09c7.76,0,14.07,6.3,14.07,14.07v14.09H0v-28.15H0Z" transform="translate(-32.66 146.84) rotate(-135)"/><path class="cls-1" d="m26.59,39.52h14.09c7.76,0,14.07,6.3,14.07,14.07v14.09h-28.15v-28.15h0Z" transform="translate(31.52 120.26) rotate(-135)"/><path class="cls-1" d="m0,12.94h14.09c7.76,0,14.07,6.3,14.07,14.07v14.09H0V12.94H0Z" transform="translate(4.93 56.08) rotate(-135)"/></g></svg>